<?xml version="1.0" encoding="UTF-8"?>
<svg xmlns="http://www.w3.org/2000/svg" xmlns:xlink="http://www.w3.org/1999/xlink" width="810pt" height="809.999993pt" viewBox="0 0 810 809.999993" version="1.2">
<defs>
<clipPath id="clip1">
  <path d="M 524 195.78125 L 611 195.78125 L 611 284 L 524 284 Z M 524 195.78125 "/>
</clipPath>
<clipPath id="clip2">
  <path d="M 200 195.78125 L 288 195.78125 L 288 284 L 200 284 Z M 200 195.78125 "/>
</clipPath>
<clipPath id="clip3">
  <path d="M 414 286 L 652 286 L 652 613.566406 L 414 613.566406 Z M 414 286 "/>
</clipPath>
<clipPath id="clip4">
  <path d="M 159 286 L 434 286 L 434 613.566406 L 159 613.566406 Z M 159 286 "/>
</clipPath>
</defs>
<g id="surface1">
<g clip-path="url(#clip1)" clip-rule="nonzero">
<path style=" stroke:none;fill-rule:nonzero;fill:rgb(83.918762%,34.899902%,34.899902%);fill-opacity:1;" d="M 610.65625 239.523438 C 610.9375 215.644531 591.855469 196.0625 567.976562 195.78125 C 544.101562 195.503906 524.519531 214.640625 524.238281 238.464844 C 524.238281 238.855469 524.238281 239.132812 524.238281 239.523438 C 523.960938 263.347656 543.039062 282.933594 566.917969 283.210938 C 590.796875 283.546875 610.378906 264.410156 610.65625 240.527344 C 610.65625 240.195312 610.65625 239.859375 610.65625 239.523438 "/>
</g>
<g clip-path="url(#clip2)" clip-rule="nonzero">
<path style=" stroke:none;fill-rule:nonzero;fill:rgb(83.918762%,34.899902%,34.899902%);fill-opacity:1;" d="M 287.300781 239.523438 C 287.578125 215.644531 268.441406 196.0625 244.566406 195.78125 C 220.6875 195.503906 201.105469 214.640625 200.824219 238.464844 C 200.824219 238.855469 200.824219 239.132812 200.824219 239.523438 C 200.546875 263.347656 219.683594 282.933594 243.558594 283.210938 C 267.4375 283.546875 287.019531 264.410156 287.300781 240.527344 C 287.300781 240.195312 287.300781 239.859375 287.300781 239.523438 "/>
</g>
<g clip-path="url(#clip3)" clip-rule="nonzero">
<path style=" stroke:none;fill-rule:nonzero;fill:rgb(83.918762%,34.899902%,34.899902%);fill-opacity:1;" d="M 495.0625 451.652344 L 513.359375 598.113281 C 514.699219 607.765625 523.679688 614.574219 533.332031 613.234375 C 542.871094 611.894531 549.625 603.246094 548.5625 593.648438 L 532.886719 468.113281 L 622.261719 468.113281 C 638.609375 468.113281 651.832031 454.890625 651.832031 438.488281 C 651.832031 435.976562 651.496094 433.410156 650.824219 430.898438 L 618.023438 308.207031 C 613.78125 292.417969 597.601562 283.042969 581.8125 287.285156 C 576.570312 288.679688 571.828125 291.46875 568.089844 295.320312 L 508.5625 357.25 L 427.945312 378.730469 C 418.460938 381.296875 412.828125 391.003906 415.335938 400.492188 C 417.902344 409.976562 427.609375 415.609375 437.09375 413.042969 L 519.328125 391.171875 C 524.519531 389.777344 529.261719 386.988281 532.996094 383.082031 L 557.210938 357.917969 L 557.210938 422.863281 L 506.164062 435.472656 C 498.910156 437.257812 494.113281 444.234375 495.0625 451.597656 L 495.0625 451.652344 "/>
</g>
<path style=" stroke:none;fill-rule:nonzero;fill:rgb(83.918762%,34.899902%,34.899902%);fill-opacity:1;" d="M 496.289062 291.246094 L 315.25 291.246094 C 305.429688 291.246094 297.507812 299.167969 297.507812 308.988281 C 297.507812 318.753906 305.429688 326.730469 315.25 326.730469 L 496.289062 326.730469 C 506.050781 326.730469 514.03125 318.753906 514.03125 308.988281 C 514.03125 299.167969 506.050781 291.246094 496.289062 291.246094 "/>
<path style=" stroke:none;fill-rule:nonzero;fill:rgb(83.918762%,34.899902%,34.899902%);fill-opacity:1;" d="M 684.578125 289.796875 L 661.871094 479.941406 L 567.363281 479.941406 C 557.546875 479.941406 549.566406 487.863281 549.566406 497.683594 C 549.566406 507.503906 557.546875 515.480469 567.363281 515.480469 L 680.226562 515.480469 C 687.757812 515.480469 694.0625 509.847656 694.957031 502.425781 L 719.839844 294.035156 C 721.007812 284.273438 714.089844 275.457031 704.328125 274.285156 C 694.566406 273.113281 685.75 280.085938 684.578125 289.796875 "/>
<path style=" stroke:none;fill-rule:nonzero;fill:rgb(83.918762%,34.899902%,34.899902%);fill-opacity:1;" d="M 149.609375 479.941406 L 126.902344 289.796875 C 125.730469 280.03125 116.917969 273.113281 107.152344 274.285156 C 97.445312 275.457031 90.472656 284.273438 91.644531 294.035156 L 116.582031 502.425781 C 117.476562 509.847656 123.78125 515.480469 131.253906 515.425781 L 244.175781 515.425781 C 253.992188 515.425781 261.914062 507.503906 261.914062 497.683594 C 261.914062 487.863281 253.992188 479.941406 244.175781 479.941406 L 149.609375 479.941406 "/>
<g clip-path="url(#clip4)" clip-rule="nonzero">
<path style=" stroke:none;fill-rule:nonzero;fill:rgb(83.918762%,34.899902%,34.899902%);fill-opacity:1;" d="M 373.664062 418.234375 L 384.542969 418.234375 L 384.542969 424.984375 C 390.566406 427.273438 394.527344 433.019531 394.527344 439.433594 L 383.816406 439.433594 C 383.816406 436.867188 381.695312 434.75 379.074219 434.75 C 376.453125 434.75 374.386719 436.925781 374.386719 439.492188 C 374.386719 441.332031 375.449219 443.003906 377.121094 443.785156 L 385.546875 448.25 C 393.078125 452.210938 395.976562 461.585938 391.960938 469.117188 C 390.34375 472.1875 387.722656 474.585938 384.542969 476.035156 L 384.542969 483.066406 L 373.71875 483.066406 L 373.71875 476.59375 C 367.246094 474.585938 362.894531 468.617188 362.894531 461.863281 L 373.664062 461.863281 C 373.605469 464.488281 375.726562 466.605469 378.347656 466.605469 C 380.96875 466.664062 383.089844 464.542969 383.089844 461.921875 C 383.089844 460.132812 382.085938 458.515625 380.523438 457.679688 L 371.875 453.105469 C 364.34375 449.085938 361.5 439.714844 365.515625 432.183594 C 367.246094 428.890625 370.203125 426.324219 373.71875 424.984375 Z M 222.25 286.28125 C 208.746094 286.167969 196.976562 295.207031 193.460938 308.207031 L 160.710938 430.898438 C 156.472656 446.6875 165.902344 462.925781 181.632812 467.109375 C 184.144531 467.777344 186.710938 468.113281 189.277344 468.113281 L 278.652344 468.113281 L 262.976562 593.648438 C 261.804688 603.414062 268.722656 612.285156 278.484375 613.457031 C 288.136719 614.628906 296.949219 607.765625 298.179688 598.113281 L 316.476562 451.597656 C 317.371094 444.234375 312.628906 437.257812 305.375 435.472656 L 254.328125 422.863281 L 254.328125 357.917969 L 278.484375 383.082031 C 282.222656 386.988281 287.019531 389.777344 292.210938 391.171875 L 355.53125 408.023438 C 338.011719 421.691406 326.519531 441.722656 323.507812 463.707031 C 321.722656 476.648438 328.417969 489.316406 340.132812 495.117188 C 364.179688 507.058594 392.40625 507.058594 416.398438 495.117188 C 428.113281 489.316406 434.753906 476.648438 433.023438 463.707031 C 430.011719 441.890625 418.742188 422.082031 401.5 408.46875 C 399.324219 406.347656 397.429688 404.003906 395.867188 401.4375 C 398.097656 394.578125 395.976562 386.988281 390.398438 382.300781 C 390.453125 367.960938 398.933594 354.960938 412.046875 349.214844 C 412.992188 348.769531 413.382812 347.710938 412.9375 346.761719 C 412.9375 346.761719 412.9375 346.761719 412.9375 346.707031 C 410.761719 342.410156 405.910156 340.234375 401.277344 341.40625 L 395.195312 343.914062 C 394.027344 344.363281 392.6875 344.25 391.625 343.582031 L 386.101562 340.066406 C 384.429688 339.0625 382.308594 339.003906 380.636719 340.066406 L 376.0625 342.855469 C 374.945312 343.523438 373.550781 343.636719 372.378906 343.132812 L 367.859375 341.183594 C 367.023438 340.847656 366.019531 340.902344 365.183594 341.40625 L 358.988281 345.308594 C 358.097656 345.8125 356.980469 345.980469 355.976562 345.699219 L 352.910156 344.917969 C 351.738281 344.585938 350.453125 344.863281 349.5625 345.699219 L 342.53125 351.894531 C 341.804688 352.5625 341.695312 353.679688 342.417969 354.460938 C 342.585938 354.683594 342.808594 354.851562 343.089844 354.960938 C 352.070312 358.757812 359.601562 365.339844 364.625 373.710938 L 302.921875 357.304688 L 243.449219 295.375 C 237.871094 289.570312 230.28125 286.28125 222.25 286.28125 "/>
</g>
</g>
</svg>
