<?xml version="1.0" encoding="UTF-8"?>
<svg xmlns="http://www.w3.org/2000/svg" xmlns:xlink="http://www.w3.org/1999/xlink" width="810pt" height="809.999993pt" viewBox="0 0 810 809.999993" version="1.2">
<g id="surface1">
<path style=" stroke:none;fill-rule:nonzero;fill:rgb(83.918762%,34.899902%,34.899902%);fill-opacity:1;" d="M 422.558594 425.878906 C 430.765625 425.058594 438.148438 421.363281 443.894531 415.207031 C 448.816406 409.871094 451.691406 404.125 453.332031 397.558594 C 448.816406 397.148438 444.304688 395.914062 439.792969 394.273438 C 438.96875 393.863281 438.148438 393.453125 437.328125 393.042969 C 436.507812 396.734375 434.457031 400.839844 431.585938 403.714844 C 428.710938 407.410156 424.199219 409.460938 419.683594 409.460938 C 415.582031 409.460938 411.480469 407.820312 408.195312 404.945312 L 368.394531 365.953125 C 361.421875 359.382812 361.421875 348.300781 367.984375 341.324219 C 371.679688 337.21875 377.011719 335.167969 382.347656 335.167969 C 385.21875 335.167969 389.320312 335.988281 392.605469 339.269531 L 409.015625 355.28125 C 408.605469 352.816406 408.605469 349.941406 408.605469 347.480469 C 408.605469 342.964844 409.015625 338.039062 410.25 333.523438 L 397.117188 320.390625 C 390.554688 313.824219 390.144531 303.152344 396.707031 296.171875 C 399.992188 292.476562 404.503906 290.835938 409.015625 290.835938 C 411.070312 290.835938 413.121094 291.246094 415.171875 292.066406 L 429.53125 306.023438 C 429.945312 305.613281 434.867188 302.738281 436.917969 301.917969 C 437.738281 301.507812 438.148438 301.097656 438.96875 301.097656 L 445.125 298.226562 L 426.25 279.753906 C 419.6875 273.1875 419.273438 262.515625 425.839844 255.535156 C 429.121094 251.84375 433.636719 250.199219 438.148438 250.199219 C 442.253906 250.199219 446.355469 251.84375 449.226562 254.714844 L 478.359375 283.449219 L 494.363281 276.058594 C 493.953125 275.648438 460.71875 242.8125 460.71875 242.8125 C 454.5625 237.066406 446.765625 233.78125 438.148438 233.78125 C 429.121094 233.78125 420.097656 237.476562 413.53125 244.453125 C 405.734375 253.074219 402.863281 264.566406 405.324219 275.238281 C 397.527344 276.058594 390.144531 279.753906 384.808594 285.5 C 375.78125 294.941406 373.730469 308.074219 377.421875 319.570312 C 369.214844 320.800781 361.832031 324.496094 356.085938 330.652344 C 347.058594 340.09375 344.597656 353.636719 348.699219 365.128906 C 340.496094 365.953125 333.109375 369.644531 327.363281 375.800781 C 314.644531 389.347656 315.054688 410.691406 328.183594 423.417969 L 367.984375 462.410156 C 374.140625 468.15625 382.347656 471.441406 390.554688 471.441406 C 399.992188 471.441406 408.605469 467.335938 415.171875 460.769531 C 424.199219 450.507812 426.660156 437.371094 422.558594 425.878906 Z M 403.273438 448.863281 C 399.992188 452.558594 395.476562 454.613281 390.964844 454.613281 C 386.859375 454.613281 382.757812 452.96875 379.472656 450.097656 L 339.671875 411.101562 C 332.699219 404.535156 332.699219 393.453125 339.261719 386.476562 C 342.546875 382.78125 347.058594 380.726562 351.984375 380.726562 C 356.085938 380.726562 360.1875 382.371094 363.472656 385.242188 L 403.273438 424.238281 C 409.839844 430.804688 409.839844 441.886719 403.273438 448.863281 Z M 403.273438 448.863281 "/>
<path style=" stroke:none;fill-rule:nonzero;fill:rgb(83.918762%,34.899902%,34.899902%);fill-opacity:1;" d="M 549.347656 502.226562 C 546.0625 498.941406 541.140625 498.941406 537.855469 502.226562 C 534.574219 505.507812 534.574219 510.433594 537.855469 513.71875 L 562.476562 538.347656 C 565.757812 541.628906 571.09375 541.628906 573.964844 538.347656 C 577.246094 535.0625 577.246094 530.136719 573.964844 526.851562 Z M 549.347656 502.226562 "/>
<path style=" stroke:none;fill-rule:nonzero;fill:rgb(83.918762%,34.899902%,34.899902%);fill-opacity:1;" d="M 651.925781 473.492188 L 611.304688 432.445312 C 623.203125 397.148438 602.6875 367.183594 595.710938 358.152344 C 594.890625 356.921875 593.25 354.457031 592.839844 353.226562 L 573.554688 298.636719 C 569.042969 287.140625 562.066406 279.34375 553.449219 275.648438 C 542.371094 271.132812 532.523438 274.828125 531.292969 275.238281 L 445.125 314.644531 C 427.890625 322.03125 419.683594 342.144531 427.070312 359.792969 C 430.765625 368.414062 437.328125 374.980469 445.945312 378.265625 C 454.5625 381.550781 463.589844 381.550781 471.796875 377.855469 L 519.394531 358.5625 L 527.1875 380.316406 C 518.570312 388.117188 500.929688 406.175781 498.054688 430.804688 C 496.003906 448.863281 502.160156 466.105469 516.109375 482.523438 C 518.984375 485.808594 524.316406 486.21875 527.597656 483.34375 C 530.882812 480.472656 531.292969 475.136719 528.417969 471.851562 C 517.339844 459.125 512.828125 445.992188 514.46875 432.855469 C 517.339844 407.820312 541.550781 389.757812 541.960938 389.757812 C 544.832031 387.707031 546.0625 383.601562 544.832031 380.316406 L 532.113281 345.019531 C 531.292969 342.964844 529.652344 341.324219 527.597656 340.503906 C 525.546875 339.683594 523.085938 339.683594 521.035156 340.503906 L 465.640625 363.488281 C 461.539062 365.128906 456.613281 365.539062 452.101562 363.488281 C 447.585938 361.847656 444.304688 358.152344 442.253906 353.636719 C 438.558594 344.605469 442.664062 333.933594 451.691406 329.832031 L 537.855469 290.425781 C 540.320312 289.605469 551.398438 286.730469 558.371094 304.382812 L 577.65625 358.5625 C 578.890625 361.847656 581.351562 365.953125 582.992188 368.003906 C 590.378906 377.445312 606.378906 402.484375 594.480469 430.804688 C 593.25 433.679688 594.070312 437.371094 596.121094 439.835938 C 596.121094 439.835938 640.4375 484.574219 640.4375 484.574219 C 643.308594 487.449219 648.644531 487.859375 651.925781 484.574219 C 655.207031 481.703125 655.207031 476.777344 651.925781 473.492188 Z M 651.925781 473.492188 "/>
<path style=" stroke:none;fill-rule:nonzero;fill:rgb(83.918762%,34.899902%,34.899902%);fill-opacity:1;" d="M 499.699219 535.0625 C 498.054688 533.421875 496.003906 532.601562 493.953125 532.601562 C 493.132812 532.601562 466.050781 532.1875 451.691406 517.003906 L 416.402344 480.472656 C 411.070312 483.34375 405.324219 485.808594 399.578125 486.628906 L 439.792969 528.496094 C 455.792969 545.324219 481.234375 548.199219 490.261719 549.019531 C 490.261719 549.019531 529.652344 588.011719 529.652344 588.011719 C 532.933594 591.296875 538.265625 591.296875 541.140625 588.011719 C 544.421875 584.730469 544.421875 579.394531 541.140625 576.519531 Z M 499.699219 535.0625 "/>
<path style=" stroke:none;fill-rule:nonzero;fill:rgb(83.918762%,34.899902%,34.899902%);fill-opacity:1;" d="M 505.851562 264.15625 L 509.546875 267.851562 L 524.726562 260.871094 C 527.597656 259.640625 533.753906 257.179688 542.371094 257.179688 C 548.523438 257.179688 554.679688 258.410156 560.015625 260.871094 C 566.167969 263.335938 571.503906 267.03125 576.015625 271.957031 C 578.066406 270.722656 580.121094 269.082031 582.171875 267.851562 C 597.761719 258 605.96875 244.042969 605.148438 228.855469 C 604.328125 212.4375 592.839844 196.019531 576.015625 187.398438 C 553.039062 175.496094 534.164062 195.609375 525.957031 204.230469 C 525.957031 204.230469 509.957031 221.058594 486.976562 245.273438 C 505.441406 263.335938 505.851562 263.746094 505.851562 264.15625 Z M 550.988281 228.445312 C 554.269531 225.164062 559.195312 225.164062 562.476562 228.035156 C 565.757812 231.320312 565.757812 236.246094 562.886719 239.527344 C 559.605469 242.8125 554.679688 242.8125 551.398438 239.9375 C 547.703125 237.066406 547.703125 231.730469 550.988281 228.445312 Z M 550.988281 228.445312 "/>
<path style=" stroke:none;fill-rule:nonzero;fill:rgb(83.918762%,34.899902%,34.899902%);fill-opacity:1;" d="M 316.695312 434.5 C 316.695312 434.5 316.285156 434.089844 316.285156 434.089844 C 315.464844 433.265625 314.644531 432.445312 314.234375 431.625 C 313.824219 430.804688 313.003906 430.394531 312.59375 429.574219 L 216.578125 530.957031 C 185.394531 563.796875 131.640625 629.058594 131.230469 629.878906 C 129.179688 632.34375 128.769531 635.625 130 638.5 C 132.464844 644.246094 139.027344 643.835938 144.363281 643.835938 C 216.167969 643.835938 299.871094 564.207031 303.976562 560.511719 L 374.960938 485.394531 C 368.394531 482.933594 362.242188 479.238281 356.90625 474.3125 Z M 316.695312 434.5 "/>
</g>
</svg>
