<?xml version="1.0" encoding="UTF-8"?>
<svg xmlns="http://www.w3.org/2000/svg" xmlns:xlink="http://www.w3.org/1999/xlink" width="810pt" height="809.999993pt" viewBox="0 0 810 809.999993" version="1.2">
<defs>
<clipPath id="clip1">
  <path d="M 95 191 L 781.5 191 L 781.5 616 L 95 616 Z M 95 191 "/>
</clipPath>
</defs>
<g id="surface1">
<g clip-path="url(#clip1)" clip-rule="nonzero">
<path style=" stroke:none;fill-rule:nonzero;fill:rgb(83.918762%,34.899902%,34.899902%);fill-opacity:1;" d="M 444.121094 285.445312 C 427.300781 288.550781 415.050781 285.445312 406.640625 302.316406 C 398.960938 319.128906 389.027344 341.304688 383.664062 343.558594 C 378.304688 345.871094 374.523438 348.1875 366.054688 341.304688 C 357.703125 334.421875 336.253906 316.085938 330.890625 296.957031 C 326.320312 277.828125 327.050781 257.179688 327.050781 257.179688 C 327.050781 257.179688 331.683594 273.992188 338.566406 290.804688 C 344.664062 307.617188 369.894531 327.535156 379.09375 312.976562 C 388.296875 298.480469 395.125 276.304688 404.324219 273.992188 C 412.734375 271.675781 415.78125 270.152344 415.78125 270.152344 C 415.78125 270.152344 390.550781 237.320312 377.570312 229.644531 C 366.054688 222.761719 343.929688 214.355469 326.320312 216.667969 C 337.042969 208.992188 369.160156 215.875 380.617188 221.96875 C 413.527344 238.84375 450.277344 284.710938 444.121094 285.445312 Z M 268.910156 292.328125 C 260.5 292.328125 252.882812 285.445312 252.882812 276.304688 C 252.882812 267.898438 259.769531 260.222656 268.910156 260.222656 C 277.320312 260.222656 285 267.109375 285 276.304688 C 285 285.445312 278.113281 292.328125 268.910156 292.328125 Z M 194.742188 381.8125 C 189.378906 384.128906 187.066406 382.605469 194.742188 377.976562 C 214.609375 366.523438 227.589844 350.441406 236.792969 340.511719 C 241.363281 340.511719 246.726562 342.035156 246.726562 348.1875 C 243.679688 352.757812 216.132812 374.199219 194.742188 381.8125 Z M 118.992188 228.851562 C 117.46875 225.804688 118.992188 222.761719 122.039062 220.445312 C 125.085938 218.921875 128.925781 219.714844 130.449219 221.96875 C 131.972656 225.074219 130.449219 228.121094 127.402344 230.4375 C 124.355469 231.957031 120.515625 231.167969 118.992188 228.851562 Z M 736.339844 503.402344 C 719.519531 487.382812 714.160156 463.625 709.585938 441.511719 C 713.425781 428.476562 714.160156 414.707031 711.84375 403.257812 C 709.585938 390.21875 705.75 373.40625 700.386719 359.640625 C 712.632812 348.1875 735.609375 363.476562 743.226562 370.363281 C 753.160156 379.558594 761.570312 413.1875 762.363281 432.3125 C 762.363281 450.648438 768.457031 475.136719 781.5 488.90625 C 770.773438 475.136719 769.25 451.441406 768.457031 437.675781 C 767.726562 423.847656 773.089844 394.058594 761.570312 365.792969 C 753.160156 345.140625 731.039062 329.058594 696.546875 319.128906 C 682.042969 280.144531 636.152344 250.292969 572.648438 231.167969 C 522.1875 215.875 462.464844 224.28125 451.738281 224.28125 C 441.074219 224.28125 396.707031 220.507812 374.523438 208.261719 C 359.960938 200.585938 338.566406 192.179688 314.863281 191.386719 C 281.953125 189.863281 258.246094 215.875 250.566406 245.726562 C 249.042969 251.085938 241.363281 259.492188 238.316406 267.109375 C 235.269531 275.515625 231.429688 293.910156 224.542969 302.316406 C 215.34375 312.976562 207.722656 323.699219 193.21875 347.394531 C 177.863281 370.363281 173.292969 380.289062 151.902344 375.722656 C 130.449219 371.09375 108.265625 343.558594 121.246094 316.085938 C 134.289062 288.550781 148.0625 267.898438 144.222656 244.933594 C 140.382812 222.027344 136.605469 212.039062 126.609375 214.355469 C 116.675781 216.667969 112.835938 227.328125 118.199219 231.957031 C 123.5625 236.527344 126.609375 238.84375 126.609375 247.980469 C 126.609375 257.179688 122.832031 272.46875 111.3125 290.074219 C 96.015625 312.976562 81.511719 359.640625 117.46875 388.699219 C 153.425781 417.753906 184.015625 410.871094 204.675781 392.535156 C 226.066406 374.199219 250.566406 352.027344 250.566406 352.027344 C 250.566406 352.027344 245.203125 359.640625 245.203125 366.523438 C 245.203125 373.40625 245.203125 374.199219 250.566406 368.046875 C 255.929688 361.953125 269.703125 355.070312 274.273438 352.757812 C 277.320312 351.234375 287.316406 352.027344 296.457031 352.027344 C 299.503906 352.027344 302.613281 352.027344 304.867188 351.234375 L 305.660156 351.234375 C 305.660156 351.234375 305.660156 351.234375 306.390625 351.234375 C 314.863281 349.710938 324.003906 345.871094 332.414062 341.304688 C 341.617188 344.351562 347.710938 349.710938 352.339844 357.324219 C 354.597656 374.929688 359.167969 391.804688 367.636719 406.300781 C 356.910156 422.382812 335.460938 453.695312 320.957031 469.046875 C 300.296875 490.429688 295.726562 500.359375 295.726562 518.695312 C 295.726562 537.089844 296.457031 552.320312 288.839844 558.472656 C 281.160156 564.625 277.320312 576.078125 277.320312 576.078125 C 277.320312 576.078125 272.019531 586.800781 297.25 586.007812 C 322.480469 585.214844 333.9375 572.238281 333.9375 572.238281 C 333.9375 572.238281 335.460938 556.949219 336.253906 543.972656 C 337.777344 530.9375 333.9375 523.261719 342.347656 517.964844 C 350.816406 512.601562 394.390625 477.390625 394.390625 477.390625 C 394.390625 477.390625 408.164062 530.207031 415.78125 547.019531 C 423.460938 564.625 425.777344 576.078125 421.144531 581.4375 C 416.574219 586.800781 406.640625 603.613281 406.640625 603.613281 C 406.640625 603.613281 404.324219 607.449219 423.460938 611.226562 C 441.804688 615.0625 457.164062 606.65625 461.734375 602.027344 C 461.734375 602.027344 468.621094 566.085938 464.050781 544.707031 C 460.941406 530.207031 457.164062 485.800781 456.371094 451.441406 C 480.808594 457.535156 495.375 467.464844 516.035156 473.554688 C 541.265625 481.230469 568.808594 477.390625 582.582031 479.707031 C 594.832031 490.429688 609.398438 504.195312 614.699219 514.125 C 623.902344 532.460938 620.0625 572.238281 616.222656 582.167969 C 612.445312 592.097656 597.878906 598.25 597.878906 598.25 C 597.878906 598.25 599.402344 608.910156 623.109375 614.332031 C 646.816406 619.632812 660.652344 607.449219 660.652344 607.449219 C 663.699219 595.9375 671.375 566.085938 668.269531 554.636719 C 665.222656 543.183594 664.429688 537.089844 661.382812 524.054688 C 659.125 513.332031 659.859375 492.683594 660.652344 488.90625 C 667.535156 494.996094 687.40625 511.808594 695.816406 520.21875 C 708.855469 533.984375 724.152344 556.949219 730.246094 563.832031 C 735.609375 570.71875 725.617188 578.390625 730.246094 598.25 C 766.203125 602.820312 779.183594 577.601562 779.183594 577.601562 C 779.183594 577.601562 780.769531 565.355469 776.136719 548.542969 C 770.042969 532.460938 761.570312 526.371094 736.339844 503.402344 "/>
</g>
</g>
</svg>
