<?xml version="1.0" encoding="UTF-8"?>
<svg xmlns="http://www.w3.org/2000/svg" xmlns:xlink="http://www.w3.org/1999/xlink" width="810pt" height="809.999993pt" viewBox="0 0 810 809.999993" version="1.2">
<g id="surface1">
<path style=" stroke:none;fill-rule:nonzero;fill:rgb(83.918762%,34.899902%,34.899902%);fill-opacity:1;" d="M 441.160156 265.761719 C 423.796875 265.769531 403.019531 267.636719 381.523438 274.089844 C 360.0625 280.53125 337.789062 291.6875 318.472656 310.164062 C 317.808594 310.800781 317.226562 311.484375 316.675781 312.183594 C 287.089844 305.675781 249.667969 308.917969 217.28125 347.203125 C 151.742188 424.691406 284.09375 492.285156 303.273438 431.875 C 316.964844 388.738281 298.710938 350.800781 319.945312 337.910156 C 323.226562 340.449219 327.167969 341.746094 331.132812 341.746094 C 335.679688 341.746094 340.238281 340.0625 343.789062 336.667969 C 345.003906 335.507812 346.257812 334.4375 347.503906 333.347656 C 353.664062 333.632812 360.789062 334.414062 369.039062 335.742188 C 369.039062 335.742188 363.949219 331.851562 355.324219 327.070312 C 366.851562 318.71875 379.355469 313.023438 392.066406 309.195312 C 405.578125 305.125 419.246094 303.265625 431.652344 302.664062 C 409.175781 345.953125 401.261719 375.171875 399.328125 426.375 C 400.023438 444.503906 406.074219 455.640625 414.480469 462.660156 C 413.335938 474.980469 409.632812 493.628906 398.75 513.191406 C 384.300781 538.902344 358.152344 567.441406 303.582031 588.40625 C 288.796875 594.03125 281.378906 610.574219 287 625.363281 C 291.351562 636.792969 302.230469 643.820312 313.773438 643.820312 C 317.160156 643.824219 320.597656 643.214844 323.949219 641.941406 C 389.699219 617.109375 428.457031 578.105469 448.84375 540.964844 C 460.253906 520.316406 466.195312 500.636719 469.226562 484.347656 L 517.824219 501.082031 L 547.574219 603.589844 C 551.984375 618.78125 567.871094 627.523438 583.054688 623.113281 C 598.242188 618.707031 606.984375 602.8125 602.574219 587.625 L 602.570312 587.625 L 568.679688 470.847656 C 566.089844 461.929688 559.28125 454.777344 550.503906 451.753906 L 480.695312 427.722656 C 483.871094 402.945312 492.179688 377.578125 500.164062 355.492188 C 498.023438 354.230469 495.890625 352.933594 493.769531 351.554688 C 477.59375 340.992188 467.621094 330.476562 464.949219 327.503906 C 460.792969 322.765625 458.792969 316.867188 459.191406 310.761719 C 459.589844 304.652344 462.34375 299.070312 466.945312 295.03125 C 471.121094 291.367188 476.484375 289.347656 482.042969 289.347656 C 488.609375 289.347656 494.871094 292.171875 499.214844 297.085938 L 500.121094 298.050781 C 501.21875 299.175781 502.464844 300.382812 503.804688 301.597656 C 506.222656 303.808594 509.832031 306.878906 514.40625 310.160156 C 515.410156 293.941406 509.421875 278.402344 496.402344 272.929688 C 493.710938 271.796875 490.78125 270.96875 487.699219 270.457031 C 487.671875 270.449219 487.648438 270.441406 487.628906 270.4375 C 486.679688 270.226562 467.925781 265.777344 441.160156 265.761719 Z M 232.375 347.78125 C 232.375 347.78125 221.054688 366.703125 219.402344 379.210938 C 217.753906 391.71875 215.53125 396.554688 233.671875 431.796875 C 184.644531 396.863281 232.375 347.78125 232.375 347.78125 Z M 232.375 347.78125 "/>
<path style=" stroke:none;fill-rule:nonzero;fill:rgb(83.918762%,34.899902%,34.899902%);fill-opacity:1;" d="M 573 185.449219 C 574.566406 186.078125 576.097656 186.785156 577.59375 187.566406 C 579.089844 188.34375 580.542969 189.195312 581.957031 190.121094 C 583.367188 191.042969 584.734375 192.035156 586.046875 193.089844 C 587.363281 194.148438 588.625 195.269531 589.832031 196.449219 C 591.035156 197.632812 592.179688 198.867188 593.265625 200.164062 C 594.347656 201.457031 595.367188 202.800781 596.316406 204.195312 C 597.269531 205.585938 598.152344 207.023438 598.960938 208.503906 C 599.773438 209.984375 600.507812 211.503906 601.171875 213.054688 C 601.832031 214.609375 602.417969 216.1875 602.921875 217.800781 C 603.429688 219.410156 603.855469 221.039062 604.203125 222.691406 C 604.546875 224.34375 604.8125 226.011719 604.996094 227.6875 C 605.179688 229.367188 605.277344 231.050781 605.296875 232.738281 C 605.3125 234.425781 605.246094 236.109375 605.097656 237.789062 C 604.949219 239.472656 604.71875 241.140625 604.40625 242.800781 C 604.097656 244.460938 603.703125 246.097656 603.230469 247.71875 C 602.757812 249.339844 602.203125 250.933594 601.574219 252.5 C 600.945312 254.066406 600.238281 255.597656 599.460938 257.09375 C 598.679688 258.589844 597.828125 260.042969 596.90625 261.457031 C 595.980469 262.871094 594.992188 264.234375 593.933594 265.550781 C 592.875 266.867188 591.757812 268.125 590.578125 269.332031 C 589.394531 270.539062 588.15625 271.683594 586.863281 272.765625 C 585.570312 273.851562 584.226562 274.867188 582.835938 275.820312 C 581.441406 276.773438 580.003906 277.65625 578.523438 278.464844 C 577.042969 279.277344 575.527344 280.011719 573.972656 280.675781 C 572.421875 281.335938 570.839844 281.921875 569.230469 282.425781 C 567.621094 282.933594 565.988281 283.359375 564.339844 283.707031 C 562.6875 284.050781 561.023438 284.316406 559.34375 284.5 C 557.667969 284.679688 555.984375 284.78125 554.296875 284.796875 C 552.609375 284.816406 550.925781 284.75 549.242188 284.601562 C 547.5625 284.453125 545.890625 284.222656 544.234375 283.910156 C 542.574219 283.597656 540.9375 283.207031 539.316406 282.730469 C 537.695312 282.257812 536.101562 281.707031 534.539062 281.078125 C 532.972656 280.445312 531.441406 279.742188 529.945312 278.960938 C 528.449219 278.179688 526.992188 277.328125 525.582031 276.40625 C 524.167969 275.480469 522.804688 274.492188 521.488281 273.433594 C 520.171875 272.378906 518.914062 271.257812 517.707031 270.078125 C 516.5 268.894531 515.355469 267.65625 514.273438 266.363281 C 513.1875 265.070312 512.171875 263.726562 511.21875 262.332031 C 510.265625 260.9375 509.386719 259.5 508.574219 258.019531 C 507.765625 256.539062 507.027344 255.023438 506.367188 253.472656 C 505.703125 251.917969 505.121094 250.335938 504.613281 248.726562 C 504.105469 247.117188 503.679688 245.484375 503.335938 243.832031 C 502.988281 242.179688 502.722656 240.515625 502.542969 238.839844 C 502.359375 237.160156 502.257812 235.476562 502.242188 233.789062 C 502.222656 232.101562 502.289062 230.417969 502.4375 228.734375 C 502.585938 227.054688 502.816406 225.382812 503.128906 223.726562 C 503.441406 222.066406 503.832031 220.425781 504.308594 218.808594 C 504.78125 217.1875 505.332031 215.59375 505.960938 214.027344 C 506.589844 212.460938 507.296875 210.929688 508.078125 209.433594 C 508.855469 207.9375 509.710938 206.480469 510.632812 205.070312 C 511.554688 203.65625 512.546875 202.292969 513.601562 200.976562 C 514.660156 199.660156 515.777344 198.398438 516.960938 197.195312 C 518.140625 195.988281 519.378906 194.84375 520.671875 193.757812 C 521.964844 192.675781 523.308594 191.65625 524.703125 190.707031 C 526.097656 189.753906 527.53125 188.871094 529.011719 188.0625 C 530.492188 187.25 532.011719 186.511719 533.5625 185.851562 C 535.113281 185.191406 536.695312 184.605469 538.304688 184.097656 C 539.914062 183.59375 541.546875 183.167969 543.199219 182.820312 C 544.851562 182.472656 546.515625 182.210938 548.191406 182.027344 C 549.871094 181.84375 551.554688 181.746094 553.242188 181.726562 C 554.929688 181.710938 556.613281 181.777344 558.292969 181.925781 C 559.976562 182.074219 561.644531 182.300781 563.304688 182.613281 C 564.960938 182.925781 566.601562 183.320312 568.222656 183.792969 C 569.839844 184.265625 571.433594 184.820312 573 185.449219 Z M 573 185.449219 "/>
<path style=" stroke:none;fill-rule:nonzero;fill:rgb(83.918762%,34.899902%,34.899902%);fill-opacity:1;" d="M 496.816406 301.21875 C 496.402344 300.789062 496.105469 300.476562 495.941406 300.292969 C 495.867188 300.214844 495.820312 300.160156 495.792969 300.132812 C 495.789062 300.128906 495.785156 300.128906 495.785156 300.128906 C 489.105469 292.5625 477.558594 291.820312 469.964844 298.480469 C 462.359375 305.15625 461.601562 316.738281 468.273438 324.347656 C 469.039062 325.191406 478.863281 336.347656 496.273438 347.71875 C 513.632812 359.019531 538.960938 370.757812 570.128906 370.792969 C 570.214844 370.792969 570.308594 370.792969 570.398438 370.792969 C 593.976562 370.792969 620.433594 363.671875 647.183594 345.867188 C 655.621094 340.277344 657.925781 328.898438 652.332031 320.464844 C 646.742188 312.027344 635.371094 309.71875 626.933594 315.316406 C 605.367188 329.546875 586.660156 334.082031 570.128906 334.132812 C 548.472656 334.164062 529.761719 325.800781 516.289062 317.003906 C 509.582031 312.636719 504.265625 308.222656 500.730469 305 C 498.96875 303.386719 497.648438 302.074219 496.816406 301.21875 Z M 496.816406 301.21875 "/>
</g>
</svg>
